<svg width="24" height="24" viewBox="0 0 24 24" fill="none" xmlns="http://www.w3.org/2000/svg">
<path d="M18 8C18 11.613 14.131 15.429 12.607 16.795C12.4327 16.9282 12.2194 17.0003 12 17.0003C11.7806 17.0003 11.5673 16.9282 11.393 16.795C9.87 15.429 6 11.613 6 8C6 6.4087 6.63214 4.88258 7.75736 3.75736C8.88258 2.63214 10.4087 2 12 2C13.5913 2 15.1174 2.63214 16.2426 3.75736C17.3679 4.88258 18 6.4087 18 8Z" stroke="white" stroke-width="1.5" stroke-linecap="round" stroke-linejoin="round"/>
<path d="M12 10C13.1046 10 14 9.10457 14 8C14 6.89543 13.1046 6 12 6C10.8954 6 10 6.89543 10 8C10 9.10457 10.8954 10 12 10Z" stroke="white" stroke-width="1.5" stroke-linecap="round" stroke-linejoin="round"/>
<path d="M8.71394 14H5.00394C4.79427 14.0001 4.58993 14.0661 4.41981 14.1886C4.2497 14.3112 4.12241 14.4841 4.05594 14.683L2.05194 20.683C2.0017 20.8333 1.98791 20.9934 2.0117 21.1501C2.03548 21.3068 2.09617 21.4556 2.18876 21.5842C2.28135 21.7128 2.40318 21.8176 2.54422 21.8899C2.68526 21.9622 2.84146 21.9999 2.99994 22H20.9999C21.1583 21.9999 21.3144 21.9621 21.4553 21.8899C21.5962 21.8177 21.718 21.713 21.8106 21.5845C21.9031 21.456 21.9639 21.3074 21.9877 21.1508C22.0116 20.9942 21.998 20.8343 21.9479 20.684L19.9479 14.684C19.8816 14.4848 19.7542 14.3115 19.5839 14.1888C19.4136 14.066 19.2089 13.9999 18.9989 14H15.2869" stroke="white" stroke-width="1.5" stroke-linecap="round" stroke-linejoin="round"/>
</svg>
